<svg width="25" height="25" viewBox="0 0 25 25" fill="none" xmlns="http://www.w3.org/2000/svg">
<path d="M23.8569 6.77446C23.5842 5.74798 22.781 4.93956 21.7612 4.66521C19.9127 4.16669 12.5003 4.16669 12.5003 4.16669C12.5003 4.16669 5.08798 4.16669 3.23941 4.66521C2.21957 4.9396 1.41636 5.74798 1.14375 6.77446C0.648438 8.635 0.648438 12.5169 0.648438 12.5169C0.648438 12.5169 0.648438 16.3987 1.14375 18.2593C1.41636 19.2857 2.21957 20.0605 3.23941 20.3348C5.08798 20.8334 12.5003 20.8334 12.5003 20.8334C12.5003 20.8334 19.9126 20.8334 21.7612 20.3348C22.781 20.0605 23.5842 19.2857 23.8569 18.2593C24.3522 16.3987 24.3522 12.5169 24.3522 12.5169C24.3522 12.5169 24.3522 8.635 23.8569 6.77446ZM10.076 16.0413V8.99242L16.2713 12.5169L10.076 16.0413Z" fill="#F87661"/>
</svg>
